<mxfile host="app.diagrams.net" modified="2024-01-16T20:53:30.290Z" agent="Mozilla/5.0 (Windows NT 10.0; Win64; x64) AppleWebKit/537.36 (KHTML, like Gecko) Chrome/120.0.0.0 Safari/537.36" etag="bzFGfdJcDPcF8XQ8Jiv2" version="22.1.19" type="device">
  <diagram name="Page-1" id="QvURnd9Q38ojuR8QBxuk">
    <mxGraphModel dx="1098" dy="586" grid="1" gridSize="10" guides="0" tooltips="1" connect="1" arrows="1" fold="1" page="1" pageScale="1" pageWidth="827" pageHeight="1169" math="0" shadow="0">
      <root>
        <mxCell id="0" />
        <mxCell id="1" parent="0" />
        <mxCell id="Hy0fXk0MDbkFYqpimEH8-85" value="" style="edgeStyle=orthogonalEdgeStyle;rounded=0;orthogonalLoop=1;jettySize=auto;html=1;" edge="1" parent="1" source="Hy0fXk0MDbkFYqpimEH8-1" target="Hy0fXk0MDbkFYqpimEH8-6">
          <mxGeometry relative="1" as="geometry" />
        </mxCell>
        <mxCell id="Hy0fXk0MDbkFYqpimEH8-1" value="Hotel&lt;br&gt;Management&lt;br&gt;System" style="shape=module;align=left;spacingLeft=20;align=center;verticalAlign=top;whiteSpace=wrap;html=1;fillColor=#cdeb8b;strokeColor=#36393d;sketch=1;curveFitting=1;jiggle=2;shadow=1;" vertex="1" parent="1">
          <mxGeometry x="10" y="420" width="140" height="60" as="geometry" />
        </mxCell>
        <mxCell id="Hy0fXk0MDbkFYqpimEH8-5" value="" style="endArrow=none;html=1;rounded=0;fillColor=#008a00;strokeColor=#005700;" edge="1" parent="1">
          <mxGeometry relative="1" as="geometry">
            <mxPoint x="79.5" y="480" as="sourcePoint" />
            <mxPoint x="80" y="520" as="targetPoint" />
          </mxGeometry>
        </mxCell>
        <mxCell id="Hy0fXk0MDbkFYqpimEH8-86" value="" style="edgeStyle=orthogonalEdgeStyle;rounded=0;orthogonalLoop=1;jettySize=auto;html=1;fillColor=#008a00;strokeColor=#005700;" edge="1" parent="1" source="Hy0fXk0MDbkFYqpimEH8-6" target="Hy0fXk0MDbkFYqpimEH8-1">
          <mxGeometry relative="1" as="geometry" />
        </mxCell>
        <mxCell id="Hy0fXk0MDbkFYqpimEH8-6" value="" style="ellipse;whiteSpace=wrap;html=1;fillColor=#cdeb8b;strokeColor=#36393d;" vertex="1" parent="1">
          <mxGeometry x="67.5" y="520" width="25" height="20" as="geometry" />
        </mxCell>
        <mxCell id="Hy0fXk0MDbkFYqpimEH8-10" value="&lt;br&gt;Hotel" style="shape=module;align=left;spacingLeft=20;align=center;verticalAlign=top;whiteSpace=wrap;html=1;sketch=1;curveFitting=1;jiggle=2;shadow=1;fillColor=#cdeb8b;strokeColor=#36393d;" vertex="1" parent="1">
          <mxGeometry x="270" y="20" width="120" height="60" as="geometry" />
        </mxCell>
        <mxCell id="Hy0fXk0MDbkFYqpimEH8-16" value="" style="ellipse;whiteSpace=wrap;html=1;" vertex="1" parent="1">
          <mxGeometry x="180" y="50" width="10" height="10" as="geometry" />
        </mxCell>
        <mxCell id="Hy0fXk0MDbkFYqpimEH8-21" value="" style="line;strokeWidth=1;fillColor=none;align=left;verticalAlign=middle;spacingTop=-1;spacingLeft=3;spacingRight=3;rotatable=0;labelPosition=right;points=[];portConstraint=eastwest;strokeColor=inherit;" vertex="1" parent="1">
          <mxGeometry x="190" y="50" width="80" height="8" as="geometry" />
        </mxCell>
        <mxCell id="Hy0fXk0MDbkFYqpimEH8-25" value="&amp;nbsp; &amp;nbsp; &amp;nbsp; &amp;nbsp; &amp;nbsp;Data Access" style="text;html=1;align=center;verticalAlign=middle;resizable=0;points=[];autosize=1;" vertex="1" parent="1">
          <mxGeometry x="150" y="50" width="120" height="30" as="geometry" />
        </mxCell>
        <mxCell id="Hy0fXk0MDbkFYqpimEH8-31" value="" style="endArrow=none;html=1;rounded=0;fillColor=#d5e8d4;strokeColor=#82b366;" edge="1" parent="1">
          <mxGeometry relative="1" as="geometry">
            <mxPoint x="120" y="424" as="sourcePoint" />
            <mxPoint x="120" y="30" as="targetPoint" />
          </mxGeometry>
        </mxCell>
        <mxCell id="Hy0fXk0MDbkFYqpimEH8-32" value="" style="endArrow=none;html=1;rounded=0;entryX=0;entryY=0;entryDx=0;entryDy=15;entryPerimeter=0;fillColor=#60a917;strokeColor=#2D7600;" edge="1" parent="1" target="Hy0fXk0MDbkFYqpimEH8-10">
          <mxGeometry relative="1" as="geometry">
            <mxPoint x="120" y="35" as="sourcePoint" />
            <mxPoint x="260" y="30" as="targetPoint" />
          </mxGeometry>
        </mxCell>
        <mxCell id="Hy0fXk0MDbkFYqpimEH8-34" value="&lt;br&gt;Room" style="shape=module;align=left;spacingLeft=20;align=center;verticalAlign=top;whiteSpace=wrap;html=1;shadow=1;sketch=1;curveFitting=1;jiggle=2;fillColor=#cdeb8b;strokeColor=#36393d;" vertex="1" parent="1">
          <mxGeometry x="260" y="120" width="120" height="60" as="geometry" />
        </mxCell>
        <mxCell id="Hy0fXk0MDbkFYqpimEH8-35" value="&amp;nbsp; &amp;nbsp; &amp;nbsp; &amp;nbsp; &amp;nbsp;Data Access" style="text;html=1;align=center;verticalAlign=middle;resizable=0;points=[];autosize=1;strokeColor=none;fillColor=none;" vertex="1" parent="1">
          <mxGeometry x="150" y="152" width="120" height="30" as="geometry" />
        </mxCell>
        <mxCell id="Hy0fXk0MDbkFYqpimEH8-37" value="" style="line;strokeWidth=1;fillColor=none;align=left;verticalAlign=middle;spacingTop=-1;spacingLeft=3;spacingRight=3;rotatable=0;labelPosition=right;points=[];portConstraint=eastwest;strokeColor=inherit;" vertex="1" parent="1">
          <mxGeometry x="190" y="152" width="70" height="8" as="geometry" />
        </mxCell>
        <mxCell id="Hy0fXk0MDbkFYqpimEH8-38" value="" style="ellipse;whiteSpace=wrap;html=1;" vertex="1" parent="1">
          <mxGeometry x="180" y="152" width="10" height="10" as="geometry" />
        </mxCell>
        <mxCell id="Hy0fXk0MDbkFYqpimEH8-39" value="" style="line;strokeWidth=1;fillColor=#60a917;align=left;verticalAlign=middle;spacingTop=-1;spacingLeft=3;spacingRight=3;rotatable=0;labelPosition=right;points=[];portConstraint=eastwest;strokeColor=#2D7600;fontColor=#ffffff;" vertex="1" parent="1">
          <mxGeometry x="120" y="102" width="140" height="60" as="geometry" />
        </mxCell>
        <mxCell id="Hy0fXk0MDbkFYqpimEH8-40" value="&lt;br&gt;Booking" style="shape=module;align=left;spacingLeft=20;align=center;verticalAlign=top;whiteSpace=wrap;html=1;shadow=1;sketch=1;curveFitting=1;jiggle=2;fillColor=#cdeb8b;strokeColor=#36393d;" vertex="1" parent="1">
          <mxGeometry x="260" y="220" width="120" height="60" as="geometry" />
        </mxCell>
        <mxCell id="Hy0fXk0MDbkFYqpimEH8-41" value="" style="line;strokeWidth=1;fillColor=none;align=left;verticalAlign=middle;spacingTop=-1;spacingLeft=3;spacingRight=3;rotatable=0;labelPosition=right;points=[];portConstraint=eastwest;strokeColor=inherit;" vertex="1" parent="1">
          <mxGeometry x="190" y="250" width="70" height="8" as="geometry" />
        </mxCell>
        <mxCell id="Hy0fXk0MDbkFYqpimEH8-42" value="" style="ellipse;whiteSpace=wrap;html=1;" vertex="1" parent="1">
          <mxGeometry x="180" y="250" width="10" height="10" as="geometry" />
        </mxCell>
        <mxCell id="Hy0fXk0MDbkFYqpimEH8-43" value="" style="line;strokeWidth=1;fillColor=#60a917;align=left;verticalAlign=middle;spacingTop=-1;spacingLeft=3;spacingRight=3;rotatable=0;labelPosition=right;points=[];portConstraint=eastwest;strokeColor=#2D7600;fontColor=#ffffff;" vertex="1" parent="1">
          <mxGeometry x="120" y="230" width="140" height="8" as="geometry" />
        </mxCell>
        <mxCell id="Hy0fXk0MDbkFYqpimEH8-45" value="&lt;br&gt;Payment" style="shape=module;align=left;spacingLeft=20;align=center;verticalAlign=top;whiteSpace=wrap;html=1;shadow=1;sketch=1;curveFitting=1;jiggle=2;fillColor=#cdeb8b;strokeColor=#36393d;" vertex="1" parent="1">
          <mxGeometry x="260" y="324" width="120" height="60" as="geometry" />
        </mxCell>
        <mxCell id="Hy0fXk0MDbkFYqpimEH8-46" value="" style="line;strokeWidth=1;fillColor=none;align=left;verticalAlign=middle;spacingTop=-1;spacingLeft=3;spacingRight=3;rotatable=0;labelPosition=right;points=[];portConstraint=eastwest;strokeColor=inherit;" vertex="1" parent="1">
          <mxGeometry x="190" y="358" width="70" height="8" as="geometry" />
        </mxCell>
        <mxCell id="Hy0fXk0MDbkFYqpimEH8-47" value="" style="ellipse;whiteSpace=wrap;html=1;" vertex="1" parent="1">
          <mxGeometry x="180" y="358" width="10" height="10" as="geometry" />
        </mxCell>
        <mxCell id="Hy0fXk0MDbkFYqpimEH8-48" value="" style="endArrow=none;html=1;rounded=0;fillColor=#60a917;strokeColor=#2D7600;" edge="1" parent="1">
          <mxGeometry relative="1" as="geometry">
            <mxPoint x="120" y="340" as="sourcePoint" />
            <mxPoint x="260" y="340" as="targetPoint" />
          </mxGeometry>
        </mxCell>
        <mxCell id="Hy0fXk0MDbkFYqpimEH8-49" value="&amp;nbsp; &amp;nbsp; &amp;nbsp; &amp;nbsp; &amp;nbsp;Data Access" style="text;html=1;align=center;verticalAlign=middle;resizable=0;points=[];autosize=1;strokeColor=none;fillColor=none;" vertex="1" parent="1">
          <mxGeometry x="150" y="250" width="120" height="30" as="geometry" />
        </mxCell>
        <mxCell id="Hy0fXk0MDbkFYqpimEH8-50" value="&amp;nbsp; &amp;nbsp; &amp;nbsp; &amp;nbsp; &amp;nbsp;Data Access" style="text;html=1;align=center;verticalAlign=middle;resizable=0;points=[];autosize=1;strokeColor=none;fillColor=none;" vertex="1" parent="1">
          <mxGeometry x="150" y="358" width="120" height="30" as="geometry" />
        </mxCell>
        <mxCell id="Hy0fXk0MDbkFYqpimEH8-51" value="&lt;br&gt;Services" style="shape=module;align=left;spacingLeft=20;align=center;verticalAlign=top;whiteSpace=wrap;html=1;shadow=1;sketch=1;curveFitting=1;jiggle=2;fillColor=#cdeb8b;strokeColor=#36393d;" vertex="1" parent="1">
          <mxGeometry x="270" y="525" width="120" height="60" as="geometry" />
        </mxCell>
        <mxCell id="Hy0fXk0MDbkFYqpimEH8-52" value="" style="endArrow=none;html=1;rounded=0;fillColor=#d5e8d4;strokeColor=#82b366;" edge="1" parent="1">
          <mxGeometry relative="1" as="geometry">
            <mxPoint x="119" y="770" as="sourcePoint" />
            <mxPoint x="119" y="480" as="targetPoint" />
          </mxGeometry>
        </mxCell>
        <mxCell id="Hy0fXk0MDbkFYqpimEH8-53" value="" style="endArrow=none;html=1;rounded=0;fillColor=#d5e8d4;strokeColor=#82b366;" edge="1" parent="1">
          <mxGeometry relative="1" as="geometry">
            <mxPoint x="120" y="540" as="sourcePoint" />
            <mxPoint x="270" y="540" as="targetPoint" />
          </mxGeometry>
        </mxCell>
        <mxCell id="Hy0fXk0MDbkFYqpimEH8-54" value="" style="line;strokeWidth=1;fillColor=none;align=left;verticalAlign=middle;spacingTop=-1;spacingLeft=3;spacingRight=3;rotatable=0;labelPosition=right;points=[];portConstraint=eastwest;strokeColor=inherit;" vertex="1" parent="1">
          <mxGeometry x="200" y="551" width="70" height="8" as="geometry" />
        </mxCell>
        <mxCell id="Hy0fXk0MDbkFYqpimEH8-55" value="" style="ellipse;whiteSpace=wrap;html=1;" vertex="1" parent="1">
          <mxGeometry x="480" y="530" height="10" as="geometry" />
        </mxCell>
        <mxCell id="Hy0fXk0MDbkFYqpimEH8-56" value="" style="ellipse;whiteSpace=wrap;html=1;" vertex="1" parent="1">
          <mxGeometry x="190" y="550" width="10" height="10" as="geometry" />
        </mxCell>
        <mxCell id="Hy0fXk0MDbkFYqpimEH8-57" value="&amp;nbsp; &amp;nbsp; &amp;nbsp; &amp;nbsp; &amp;nbsp;Data Access" style="text;html=1;align=center;verticalAlign=middle;resizable=0;points=[];autosize=1;strokeColor=none;fillColor=none;" vertex="1" parent="1">
          <mxGeometry x="160" y="550" width="120" height="30" as="geometry" />
        </mxCell>
        <mxCell id="Hy0fXk0MDbkFYqpimEH8-61" value="&lt;br&gt;Staff" style="shape=module;align=left;spacingLeft=20;align=center;verticalAlign=top;whiteSpace=wrap;html=1;shadow=1;sketch=1;curveFitting=1;jiggle=2;fillColor=#cdeb8b;strokeColor=#36393d;" vertex="1" parent="1">
          <mxGeometry x="270" y="640" width="120" height="60" as="geometry" />
        </mxCell>
        <mxCell id="Hy0fXk0MDbkFYqpimEH8-62" value="" style="endArrow=none;html=1;rounded=0;fillColor=#d5e8d4;strokeColor=#82b366;" edge="1" parent="1">
          <mxGeometry relative="1" as="geometry">
            <mxPoint x="120" y="660" as="sourcePoint" />
            <mxPoint x="270" y="660" as="targetPoint" />
          </mxGeometry>
        </mxCell>
        <mxCell id="Hy0fXk0MDbkFYqpimEH8-63" value="&amp;nbsp; &amp;nbsp; &amp;nbsp; &amp;nbsp; &amp;nbsp;Data Access" style="text;html=1;align=center;verticalAlign=middle;resizable=0;points=[];autosize=1;strokeColor=none;fillColor=none;" vertex="1" parent="1">
          <mxGeometry x="160" y="670" width="120" height="30" as="geometry" />
        </mxCell>
        <mxCell id="Hy0fXk0MDbkFYqpimEH8-64" value="" style="line;strokeWidth=1;fillColor=none;align=left;verticalAlign=middle;spacingTop=-1;spacingLeft=3;spacingRight=3;rotatable=0;labelPosition=right;points=[];portConstraint=eastwest;strokeColor=inherit;" vertex="1" parent="1">
          <mxGeometry x="200" y="670" width="70" height="8" as="geometry" />
        </mxCell>
        <mxCell id="Hy0fXk0MDbkFYqpimEH8-65" value="" style="ellipse;whiteSpace=wrap;html=1;" vertex="1" parent="1">
          <mxGeometry x="190" y="670" width="10" height="10" as="geometry" />
        </mxCell>
        <mxCell id="Hy0fXk0MDbkFYqpimEH8-66" value="&lt;br&gt;Guest" style="shape=module;align=left;spacingLeft=20;align=center;verticalAlign=top;whiteSpace=wrap;html=1;shadow=1;sketch=1;curveFitting=1;jiggle=2;fillColor=#cdeb8b;strokeColor=#36393d;" vertex="1" parent="1">
          <mxGeometry x="270" y="750" width="120" height="60" as="geometry" />
        </mxCell>
        <mxCell id="Hy0fXk0MDbkFYqpimEH8-67" value="" style="endArrow=none;html=1;rounded=0;fillColor=#d5e8d4;strokeColor=#82b366;" edge="1" parent="1">
          <mxGeometry relative="1" as="geometry">
            <mxPoint x="120" y="770" as="sourcePoint" />
            <mxPoint x="270" y="770" as="targetPoint" />
          </mxGeometry>
        </mxCell>
        <mxCell id="Hy0fXk0MDbkFYqpimEH8-68" value="&amp;nbsp; &amp;nbsp; &amp;nbsp; &amp;nbsp; &amp;nbsp;Data Access" style="text;html=1;align=center;verticalAlign=middle;resizable=0;points=[];autosize=1;strokeColor=none;fillColor=none;" vertex="1" parent="1">
          <mxGeometry x="160" y="780" width="120" height="30" as="geometry" />
        </mxCell>
        <mxCell id="Hy0fXk0MDbkFYqpimEH8-69" value="" style="line;strokeWidth=1;fillColor=none;align=left;verticalAlign=middle;spacingTop=-1;spacingLeft=3;spacingRight=3;rotatable=0;labelPosition=right;points=[];portConstraint=eastwest;strokeColor=inherit;" vertex="1" parent="1">
          <mxGeometry x="200" y="780" width="70" height="8" as="geometry" />
        </mxCell>
        <mxCell id="Hy0fXk0MDbkFYqpimEH8-70" value="" style="ellipse;whiteSpace=wrap;html=1;" vertex="1" parent="1">
          <mxGeometry x="190" y="780" width="10" height="10" as="geometry" />
        </mxCell>
        <mxCell id="Hy0fXk0MDbkFYqpimEH8-71" value="" style="strokeWidth=2;html=1;shape=mxgraph.flowchart.annotation_1;align=left;pointerEvents=1;rotation=-180;strokeColor=#EF0606;" vertex="1" parent="1">
          <mxGeometry x="390" y="58" width="50" height="724" as="geometry" />
        </mxCell>
        <mxCell id="Hy0fXk0MDbkFYqpimEH8-72" value="" style="line;strokeWidth=2;html=1;strokeColor=#EF0606;" vertex="1" parent="1">
          <mxGeometry x="380" y="356" width="60" height="10" as="geometry" />
        </mxCell>
        <mxCell id="Hy0fXk0MDbkFYqpimEH8-73" value="" style="line;strokeWidth=2;html=1;strokeColor=#EF0606;" vertex="1" parent="1">
          <mxGeometry x="380" y="248" width="60" height="10" as="geometry" />
        </mxCell>
        <mxCell id="Hy0fXk0MDbkFYqpimEH8-74" value="" style="line;strokeWidth=2;html=1;strokeColor=#EF0606;" vertex="1" parent="1">
          <mxGeometry x="380" y="145" width="60" height="10" as="geometry" />
        </mxCell>
        <mxCell id="Hy0fXk0MDbkFYqpimEH8-76" value="" style="line;strokeWidth=2;html=1;strokeColor=#EF0606;" vertex="1" parent="1">
          <mxGeometry x="390" y="670" width="50" height="10" as="geometry" />
        </mxCell>
        <mxCell id="Hy0fXk0MDbkFYqpimEH8-77" value="" style="line;strokeWidth=2;html=1;strokeColor=#EF0606;" vertex="1" parent="1">
          <mxGeometry x="390" y="550" width="50" height="10" as="geometry" />
        </mxCell>
        <mxCell id="Hy0fXk0MDbkFYqpimEH8-79" value="Security:&lt;br&gt;Symfony" style="shape=module;align=left;spacingLeft=20;align=center;verticalAlign=top;whiteSpace=wrap;html=1;sketch=1;curveFitting=1;jiggle=2;shadow=1;fillColor=#ffe6cc;strokeColor=#d79b00;" vertex="1" parent="1">
          <mxGeometry x="660" y="30" width="130" height="50" as="geometry" />
        </mxCell>
        <mxCell id="Hy0fXk0MDbkFYqpimEH8-80" value="" style="shape=providedRequiredInterface;html=1;verticalLabelPosition=bottom;sketch=0;rotation=-180;fillColor=#ffe6cc;strokeColor=#d79b00;" vertex="1" parent="1">
          <mxGeometry x="590" y="30" width="20" height="20" as="geometry" />
        </mxCell>
        <mxCell id="Hy0fXk0MDbkFYqpimEH8-81" value="" style="shape=providedRequiredInterface;html=1;verticalLabelPosition=bottom;sketch=0;rotation=-180;fillColor=#ffe6cc;strokeColor=#d79b00;" vertex="1" parent="1">
          <mxGeometry x="590" y="60" width="20" height="20" as="geometry" />
        </mxCell>
        <mxCell id="Hy0fXk0MDbkFYqpimEH8-82" value="" style="endArrow=none;html=1;rounded=0;exitX=0;exitY=0.5;exitDx=0;exitDy=0;exitPerimeter=0;fillColor=#ffe6cc;strokeColor=#d79b00;" edge="1" parent="1" source="Hy0fXk0MDbkFYqpimEH8-81">
          <mxGeometry relative="1" as="geometry">
            <mxPoint x="630" y="70" as="sourcePoint" />
            <mxPoint x="660" y="70" as="targetPoint" />
            <Array as="points">
              <mxPoint x="660" y="70" />
            </Array>
          </mxGeometry>
        </mxCell>
        <mxCell id="Hy0fXk0MDbkFYqpimEH8-84" value="" style="endArrow=none;html=1;rounded=0;fillColor=#ffe6cc;strokeColor=#d79b00;" edge="1" parent="1">
          <mxGeometry relative="1" as="geometry">
            <mxPoint x="610" y="40" as="sourcePoint" />
            <mxPoint x="660" y="40" as="targetPoint" />
          </mxGeometry>
        </mxCell>
        <mxCell id="Hy0fXk0MDbkFYqpimEH8-87" value="" style="strokeWidth=2;html=1;shape=mxgraph.flowchart.annotation_1;align=left;pointerEvents=1;fillColor=#f0a30a;fontColor=#000000;strokeColor=#BD7000;" vertex="1" parent="1">
          <mxGeometry x="540" y="40" width="50" height="30" as="geometry" />
        </mxCell>
        <mxCell id="Hy0fXk0MDbkFYqpimEH8-89" value="Symfony&lt;br&gt;Authenticator&lt;br&gt;Provider" style="shape=module;align=left;spacingLeft=20;align=center;verticalAlign=top;whiteSpace=wrap;html=1;sketch=1;curveFitting=1;jiggle=2;shadow=1;fillColor=#ffe6cc;strokeColor=#d79b00;" vertex="1" parent="1">
          <mxGeometry x="960" y="30" width="130" height="60" as="geometry" />
        </mxCell>
        <mxCell id="Hy0fXk0MDbkFYqpimEH8-90" value="" style="endArrow=none;html=1;rounded=0;fillColor=#ffe6cc;strokeColor=#d79b00;" edge="1" parent="1">
          <mxGeometry relative="1" as="geometry">
            <mxPoint x="910" y="40" as="sourcePoint" />
            <mxPoint x="960" y="40" as="targetPoint" />
            <Array as="points" />
          </mxGeometry>
        </mxCell>
        <mxCell id="Hy0fXk0MDbkFYqpimEH8-91" value="" style="endArrow=none;html=1;rounded=0;fillColor=#ffe6cc;strokeColor=#d79b00;" edge="1" parent="1">
          <mxGeometry relative="1" as="geometry">
            <mxPoint x="910" y="70" as="sourcePoint" />
            <mxPoint x="960" y="70" as="targetPoint" />
            <Array as="points">
              <mxPoint x="930" y="70" />
            </Array>
          </mxGeometry>
        </mxCell>
        <mxCell id="Hy0fXk0MDbkFYqpimEH8-92" value="" style="shape=providedRequiredInterface;html=1;verticalLabelPosition=bottom;sketch=0;rotation=-180;fillColor=#ffe6cc;strokeColor=#d79b00;" vertex="1" parent="1">
          <mxGeometry x="890" y="60" width="20" height="20" as="geometry" />
        </mxCell>
        <mxCell id="Hy0fXk0MDbkFYqpimEH8-93" value="" style="shape=providedRequiredInterface;html=1;verticalLabelPosition=bottom;sketch=0;rotation=-180;fillColor=#ffe6cc;strokeColor=#d79b00;" vertex="1" parent="1">
          <mxGeometry x="890" y="30" width="20" height="20" as="geometry" />
        </mxCell>
        <mxCell id="Hy0fXk0MDbkFYqpimEH8-97" value="" style="endArrow=none;html=1;rounded=0;fillColor=#ffe6cc;strokeColor=#d79b00;" edge="1" parent="1">
          <mxGeometry relative="1" as="geometry">
            <mxPoint x="790" y="70" as="sourcePoint" />
            <mxPoint x="890" y="70" as="targetPoint" />
            <Array as="points" />
          </mxGeometry>
        </mxCell>
        <mxCell id="Hy0fXk0MDbkFYqpimEH8-98" value="" style="endArrow=none;html=1;rounded=0;fillColor=#ffe6cc;strokeColor=#d79b00;" edge="1" parent="1">
          <mxGeometry relative="1" as="geometry">
            <mxPoint x="790" y="40" as="sourcePoint" />
            <mxPoint x="890" y="40" as="targetPoint" />
            <Array as="points" />
          </mxGeometry>
        </mxCell>
        <mxCell id="Hy0fXk0MDbkFYqpimEH8-99" value="Encryption" style="text;html=1;align=center;verticalAlign=middle;resizable=0;points=[];autosize=1;strokeColor=none;fillColor=none;" vertex="1" parent="1">
          <mxGeometry x="520" y="10" width="80" height="30" as="geometry" />
        </mxCell>
        <mxCell id="Hy0fXk0MDbkFYqpimEH8-100" value="Access&lt;br&gt;Control" style="text;html=1;align=center;verticalAlign=middle;resizable=0;points=[];autosize=1;strokeColor=none;fillColor=none;" vertex="1" parent="1">
          <mxGeometry x="530" y="73" width="60" height="40" as="geometry" />
        </mxCell>
        <mxCell id="Hy0fXk0MDbkFYqpimEH8-103" value="" style="curved=1;endArrow=classic;html=1;rounded=0;fillColor=#008a00;strokeColor=#005700;" edge="1" parent="1">
          <mxGeometry width="50" height="50" relative="1" as="geometry">
            <mxPoint x="390" y="50" as="sourcePoint" />
            <mxPoint x="530" y="50" as="targetPoint" />
            <Array as="points">
              <mxPoint x="440" y="50" />
              <mxPoint x="390" />
            </Array>
          </mxGeometry>
        </mxCell>
        <mxCell id="Hy0fXk0MDbkFYqpimEH8-104" value="" style="curved=1;endArrow=classic;html=1;rounded=0;fillColor=#008a00;strokeColor=#005700;" edge="1" parent="1">
          <mxGeometry width="50" height="50" relative="1" as="geometry">
            <mxPoint x="380" y="240" as="sourcePoint" />
            <mxPoint x="510" y="70" as="targetPoint" />
            <Array as="points">
              <mxPoint x="430" y="240" />
              <mxPoint x="380" y="190" />
            </Array>
          </mxGeometry>
        </mxCell>
        <mxCell id="Hy0fXk0MDbkFYqpimEH8-105" value="" style="curved=1;endArrow=classic;html=1;rounded=0;fillColor=#008a00;strokeColor=#005700;" edge="1" parent="1">
          <mxGeometry width="50" height="50" relative="1" as="geometry">
            <mxPoint x="380" y="140" as="sourcePoint" />
            <mxPoint x="520" y="60" as="targetPoint" />
            <Array as="points">
              <mxPoint x="430" y="140" />
              <mxPoint x="410" y="120" />
              <mxPoint x="380" y="90" />
            </Array>
          </mxGeometry>
        </mxCell>
        <mxCell id="Hy0fXk0MDbkFYqpimEH8-106" value="" style="curved=1;endArrow=classic;html=1;rounded=0;fillColor=#008a00;strokeColor=#005700;" edge="1" parent="1" source="Hy0fXk0MDbkFYqpimEH8-45">
          <mxGeometry width="50" height="50" relative="1" as="geometry">
            <mxPoint x="390" y="340" as="sourcePoint" />
            <mxPoint x="530" y="60" as="targetPoint" />
            <Array as="points">
              <mxPoint x="440" y="340" />
              <mxPoint x="420" y="320" />
              <mxPoint x="390" y="290" />
            </Array>
          </mxGeometry>
        </mxCell>
        <mxCell id="Hy0fXk0MDbkFYqpimEH8-107" value="" style="curved=1;endArrow=classic;html=1;rounded=0;entryX=0.039;entryY=-0.047;entryDx=0;entryDy=0;entryPerimeter=0;fillColor=#008a00;strokeColor=#005700;" edge="1" parent="1" target="Hy0fXk0MDbkFYqpimEH8-100">
          <mxGeometry width="50" height="50" relative="1" as="geometry">
            <mxPoint x="400" y="540" as="sourcePoint" />
            <mxPoint x="450" y="490" as="targetPoint" />
            <Array as="points">
              <mxPoint x="450" y="540" />
              <mxPoint x="400" y="490" />
            </Array>
          </mxGeometry>
        </mxCell>
        <mxCell id="Hy0fXk0MDbkFYqpimEH8-109" value="&lt;br&gt;Persistence:&lt;br&gt;Doctrine ORM" style="shape=module;align=left;spacingLeft=20;align=center;verticalAlign=top;whiteSpace=wrap;html=1;sketch=1;curveFitting=1;jiggle=2;shadow=1;fillColor=#fad9d5;strokeColor=#ae4132;" vertex="1" parent="1">
          <mxGeometry x="620" y="260" width="140" height="70" as="geometry" />
        </mxCell>
        <mxCell id="Hy0fXk0MDbkFYqpimEH8-110" value="" style="endArrow=none;html=1;rounded=0;fillColor=#ffe6cc;strokeColor=#c84040;" edge="1" parent="1">
          <mxGeometry relative="1" as="geometry">
            <mxPoint x="570" y="270" as="sourcePoint" />
            <mxPoint x="620" y="270" as="targetPoint" />
            <Array as="points">
              <mxPoint x="600" y="270" />
              <mxPoint x="620" y="270" />
            </Array>
          </mxGeometry>
        </mxCell>
        <mxCell id="Hy0fXk0MDbkFYqpimEH8-111" value="" style="endArrow=none;html=1;rounded=0;exitX=0;exitY=0.5;exitDx=0;exitDy=0;exitPerimeter=0;fillColor=#ffe6cc;strokeColor=#c85151;" edge="1" parent="1">
          <mxGeometry relative="1" as="geometry">
            <mxPoint x="570" y="300" as="sourcePoint" />
            <mxPoint x="620" y="300" as="targetPoint" />
            <Array as="points">
              <mxPoint x="620" y="300" />
            </Array>
          </mxGeometry>
        </mxCell>
        <mxCell id="Hy0fXk0MDbkFYqpimEH8-114" value="" style="shape=providedRequiredInterface;html=1;verticalLabelPosition=bottom;sketch=0;rotation=-180;fillColor=#a20025;strokeColor=#6F0000;fontColor=#ffffff;" vertex="1" parent="1">
          <mxGeometry x="550" y="260" width="20" height="20" as="geometry" />
        </mxCell>
        <mxCell id="Hy0fXk0MDbkFYqpimEH8-115" value="" style="shape=providedRequiredInterface;html=1;verticalLabelPosition=bottom;sketch=0;rotation=-180;fillColor=#a20025;strokeColor=#6F0000;fontColor=#ffffff;" vertex="1" parent="1">
          <mxGeometry x="550" y="290" width="20" height="20" as="geometry" />
        </mxCell>
        <mxCell id="Hy0fXk0MDbkFYqpimEH8-118" value="" style="endArrow=none;html=1;rounded=0;fillColor=#a20025;strokeColor=#6F0000;" edge="1" parent="1">
          <mxGeometry relative="1" as="geometry">
            <mxPoint x="440" y="300" as="sourcePoint" />
            <mxPoint x="550" y="300" as="targetPoint" />
            <Array as="points">
              <mxPoint x="550" y="300" />
            </Array>
          </mxGeometry>
        </mxCell>
        <mxCell id="Hy0fXk0MDbkFYqpimEH8-119" value="" style="endArrow=none;html=1;rounded=0;fillColor=#a20025;strokeColor=#6F0000;" edge="1" parent="1">
          <mxGeometry relative="1" as="geometry">
            <mxPoint x="440" y="270" as="sourcePoint" />
            <mxPoint x="550" y="270" as="targetPoint" />
            <Array as="points">
              <mxPoint x="550" y="270" />
            </Array>
          </mxGeometry>
        </mxCell>
        <mxCell id="Hy0fXk0MDbkFYqpimEH8-120" value="Encryption" style="text;html=1;align=center;verticalAlign=middle;resizable=0;points=[];autosize=1;strokeColor=none;fillColor=none;" vertex="1" parent="1">
          <mxGeometry x="530" y="228" width="80" height="30" as="geometry" />
        </mxCell>
        <mxCell id="Hy0fXk0MDbkFYqpimEH8-121" value="Access&lt;br&gt;Control" style="text;html=1;align=center;verticalAlign=middle;resizable=0;points=[];autosize=1;strokeColor=none;fillColor=none;" vertex="1" parent="1">
          <mxGeometry x="550" y="303" width="60" height="40" as="geometry" />
        </mxCell>
        <mxCell id="Hy0fXk0MDbkFYqpimEH8-124" value="" style="shape=partialRectangle;whiteSpace=wrap;html=1;bottom=1;right=1;left=1;top=0;fillColor=none;routingCenterX=-0.5;rotation=-90;strokeColor=#990000;" vertex="1" parent="1">
          <mxGeometry x="722.5" y="342.5" width="140" height="55" as="geometry" />
        </mxCell>
        <mxCell id="Hy0fXk0MDbkFYqpimEH8-128" value="" style="shape=providedRequiredInterface;html=1;verticalLabelPosition=bottom;sketch=0;rotation=0;fillColor=#a20025;strokeColor=#6F0000;fontColor=#ffffff;" vertex="1" parent="1">
          <mxGeometry x="740" y="430" width="20" height="20" as="geometry" />
        </mxCell>
        <mxCell id="Hy0fXk0MDbkFYqpimEH8-129" value="&lt;br&gt;Database" style="shape=module;align=left;spacingLeft=20;align=center;verticalAlign=top;whiteSpace=wrap;html=1;fillColor=#f8cecc;strokeColor=#b85450;sketch=1;curveFitting=1;jiggle=2;shadow=1;" vertex="1" parent="1">
          <mxGeometry x="570" y="410" width="120" height="50" as="geometry" />
        </mxCell>
        <mxCell id="Hy0fXk0MDbkFYqpimEH8-130" value="" style="endArrow=none;html=1;rounded=0;fillColor=#ffe6cc;strokeColor=#c84040;" edge="1" parent="1">
          <mxGeometry relative="1" as="geometry">
            <mxPoint x="690" y="440" as="sourcePoint" />
            <mxPoint x="740" y="440" as="targetPoint" />
            <Array as="points">
              <mxPoint x="720" y="440" />
              <mxPoint x="740" y="440" />
            </Array>
          </mxGeometry>
        </mxCell>
        <mxCell id="Hy0fXk0MDbkFYqpimEH8-131" value="Database&lt;br&gt;Connector" style="text;html=1;align=center;verticalAlign=middle;resizable=0;points=[];autosize=1;strokeColor=none;fillColor=none;" vertex="1" parent="1">
          <mxGeometry x="700" y="383" width="80" height="40" as="geometry" />
        </mxCell>
        <mxCell id="Hy0fXk0MDbkFYqpimEH8-132" value="&lt;br&gt;Security:&lt;br&gt;Symfony" style="shape=module;align=left;spacingLeft=20;align=center;verticalAlign=top;whiteSpace=wrap;html=1;sketch=1;curveFitting=1;jiggle=2;shadow=1;fillColor=#b0e3e6;strokeColor=#0e8088;" vertex="1" parent="1">
          <mxGeometry x="650" y="600" width="130" height="60" as="geometry" />
        </mxCell>
        <mxCell id="Hy0fXk0MDbkFYqpimEH8-133" value="" style="endArrow=none;html=1;rounded=0;exitX=0;exitY=0.5;exitDx=0;exitDy=0;exitPerimeter=0;fillColor=#b0e3e6;strokeColor=#0e8088;" edge="1" parent="1">
          <mxGeometry relative="1" as="geometry">
            <mxPoint x="600" y="610" as="sourcePoint" />
            <mxPoint x="650" y="610" as="targetPoint" />
            <Array as="points">
              <mxPoint x="650" y="610" />
            </Array>
          </mxGeometry>
        </mxCell>
        <mxCell id="Hy0fXk0MDbkFYqpimEH8-134" value="" style="endArrow=none;html=1;rounded=0;exitX=0;exitY=0.5;exitDx=0;exitDy=0;exitPerimeter=0;fillColor=#b0e3e6;strokeColor=#0e8088;" edge="1" parent="1">
          <mxGeometry relative="1" as="geometry">
            <mxPoint x="600" y="640" as="sourcePoint" />
            <mxPoint x="650" y="640" as="targetPoint" />
            <Array as="points">
              <mxPoint x="650" y="640" />
            </Array>
          </mxGeometry>
        </mxCell>
        <mxCell id="Hy0fXk0MDbkFYqpimEH8-135" value="" style="shape=providedRequiredInterface;html=1;verticalLabelPosition=bottom;sketch=0;rotation=-180;fillColor=#b0e3e6;strokeColor=#0e8088;" vertex="1" parent="1">
          <mxGeometry x="580" y="600" width="20" height="20" as="geometry" />
        </mxCell>
        <mxCell id="Hy0fXk0MDbkFYqpimEH8-136" value="" style="shape=providedRequiredInterface;html=1;verticalLabelPosition=bottom;sketch=0;rotation=-180;fillColor=#b0e3e6;strokeColor=#0e8088;" vertex="1" parent="1">
          <mxGeometry x="580" y="630" width="20" height="20" as="geometry" />
        </mxCell>
        <mxCell id="Hy0fXk0MDbkFYqpimEH8-137" value="" style="shape=partialRectangle;whiteSpace=wrap;html=1;bottom=1;right=1;left=1;top=0;fillColor=#FFFFFF;routingCenterX=-0.5;rotation=90;strokeColor=#10739e;" vertex="1" parent="1">
          <mxGeometry x="547.5" y="612.5" width="35" height="21.25" as="geometry" />
        </mxCell>
        <mxCell id="Hy0fXk0MDbkFYqpimEH8-139" value="" style="curved=1;endArrow=classic;html=1;rounded=0;entryX=0.5;entryY=1;entryDx=0;entryDy=0;fillColor=#b0e3e6;strokeColor=#0e8088;" edge="1" parent="1" target="Hy0fXk0MDbkFYqpimEH8-137">
          <mxGeometry width="50" height="50" relative="1" as="geometry">
            <mxPoint x="390" y="660" as="sourcePoint" />
            <mxPoint x="440" y="610" as="targetPoint" />
            <Array as="points">
              <mxPoint x="440" y="660" />
              <mxPoint x="390" y="610" />
            </Array>
          </mxGeometry>
        </mxCell>
        <mxCell id="Hy0fXk0MDbkFYqpimEH8-140" value="Encryption" style="text;html=1;align=center;verticalAlign=middle;resizable=0;points=[];autosize=1;strokeColor=none;fillColor=none;" vertex="1" parent="1">
          <mxGeometry x="540" y="578" width="80" height="30" as="geometry" />
        </mxCell>
        <mxCell id="Hy0fXk0MDbkFYqpimEH8-141" value="Access&lt;br&gt;Control" style="text;html=1;align=center;verticalAlign=middle;resizable=0;points=[];autosize=1;strokeColor=none;fillColor=none;" vertex="1" parent="1">
          <mxGeometry x="580" y="660" width="60" height="40" as="geometry" />
        </mxCell>
        <mxCell id="Hy0fXk0MDbkFYqpimEH8-142" value="User Provider&lt;br&gt;Interface &amp;amp; Form&lt;br&gt;Login&lt;br&gt;Authenticator" style="shape=module;align=left;spacingLeft=20;align=center;verticalAlign=top;whiteSpace=wrap;html=1;sketch=1;curveFitting=1;jiggle=2;shadow=1;fillColor=#b0e3e6;strokeColor=#0e8088;" vertex="1" parent="1">
          <mxGeometry x="960" y="600" width="160" height="70" as="geometry" />
        </mxCell>
        <mxCell id="Hy0fXk0MDbkFYqpimEH8-143" value="" style="endArrow=none;html=1;rounded=0;exitX=0;exitY=0.5;exitDx=0;exitDy=0;exitPerimeter=0;fillColor=#b0e3e6;strokeColor=#0e8088;" edge="1" parent="1">
          <mxGeometry relative="1" as="geometry">
            <mxPoint x="910" y="640" as="sourcePoint" />
            <mxPoint x="960" y="640" as="targetPoint" />
            <Array as="points">
              <mxPoint x="960" y="640" />
            </Array>
          </mxGeometry>
        </mxCell>
        <mxCell id="Hy0fXk0MDbkFYqpimEH8-144" value="" style="endArrow=none;html=1;rounded=0;exitX=0;exitY=0.5;exitDx=0;exitDy=0;exitPerimeter=0;fillColor=#b0e3e6;strokeColor=#0e8088;" edge="1" parent="1">
          <mxGeometry relative="1" as="geometry">
            <mxPoint x="910" y="610" as="sourcePoint" />
            <mxPoint x="960" y="610" as="targetPoint" />
            <Array as="points">
              <mxPoint x="960" y="610" />
            </Array>
          </mxGeometry>
        </mxCell>
        <mxCell id="Hy0fXk0MDbkFYqpimEH8-149" value="" style="shape=providedRequiredInterface;html=1;verticalLabelPosition=bottom;sketch=0;rotation=-180;fillColor=#b0e3e6;strokeColor=#0e8088;" vertex="1" parent="1">
          <mxGeometry x="890" y="630" width="20" height="20" as="geometry" />
        </mxCell>
        <mxCell id="Hy0fXk0MDbkFYqpimEH8-150" value="" style="shape=providedRequiredInterface;html=1;verticalLabelPosition=bottom;sketch=0;rotation=-180;fillColor=#b0e3e6;strokeColor=#0e8088;" vertex="1" parent="1">
          <mxGeometry x="890" y="600" width="20" height="20" as="geometry" />
        </mxCell>
        <mxCell id="Hy0fXk0MDbkFYqpimEH8-153" value="" style="endArrow=none;html=1;rounded=0;fillColor=#b0e3e6;strokeColor=#0e8088;" edge="1" parent="1">
          <mxGeometry relative="1" as="geometry">
            <mxPoint x="780" y="610" as="sourcePoint" />
            <mxPoint x="890" y="610" as="targetPoint" />
            <Array as="points">
              <mxPoint x="890" y="610" />
            </Array>
          </mxGeometry>
        </mxCell>
        <mxCell id="Hy0fXk0MDbkFYqpimEH8-154" value="" style="endArrow=none;html=1;rounded=0;fillColor=#b0e3e6;strokeColor=#0e8088;" edge="1" parent="1">
          <mxGeometry relative="1" as="geometry">
            <mxPoint x="780" y="640" as="sourcePoint" />
            <mxPoint x="890" y="640" as="targetPoint" />
            <Array as="points">
              <mxPoint x="890" y="640" />
            </Array>
          </mxGeometry>
        </mxCell>
        <mxCell id="Hy0fXk0MDbkFYqpimEH8-155" value="&lt;br&gt;Security:&lt;br&gt;Symfony" style="shape=module;align=left;spacingLeft=20;align=center;verticalAlign=top;whiteSpace=wrap;html=1;sketch=1;curveFitting=1;jiggle=2;shadow=1;fillColor=#e1d5e7;strokeColor=#9673a6;" vertex="1" parent="1">
          <mxGeometry x="650" y="880" width="130" height="60" as="geometry" />
        </mxCell>
        <mxCell id="Hy0fXk0MDbkFYqpimEH8-156" value="" style="endArrow=none;html=1;rounded=0;exitX=0;exitY=0.5;exitDx=0;exitDy=0;exitPerimeter=0;fillColor=#e1d5e7;strokeColor=#9673a6;" edge="1" parent="1">
          <mxGeometry relative="1" as="geometry">
            <mxPoint x="600" y="890" as="sourcePoint" />
            <mxPoint x="650" y="890" as="targetPoint" />
            <Array as="points">
              <mxPoint x="650" y="890" />
            </Array>
          </mxGeometry>
        </mxCell>
        <mxCell id="Hy0fXk0MDbkFYqpimEH8-157" value="" style="endArrow=none;html=1;rounded=0;exitX=0;exitY=0.5;exitDx=0;exitDy=0;exitPerimeter=0;fillColor=#e1d5e7;strokeColor=#9673a6;" edge="1" parent="1">
          <mxGeometry relative="1" as="geometry">
            <mxPoint x="600" y="920" as="sourcePoint" />
            <mxPoint x="650" y="920" as="targetPoint" />
            <Array as="points">
              <mxPoint x="650" y="920" />
            </Array>
          </mxGeometry>
        </mxCell>
        <mxCell id="Hy0fXk0MDbkFYqpimEH8-158" value="" style="shape=providedRequiredInterface;html=1;verticalLabelPosition=bottom;sketch=0;rotation=-180;fillColor=#e1d5e7;strokeColor=#9673a6;" vertex="1" parent="1">
          <mxGeometry x="580" y="880" width="20" height="20" as="geometry" />
        </mxCell>
        <mxCell id="Hy0fXk0MDbkFYqpimEH8-159" value="" style="shape=providedRequiredInterface;html=1;verticalLabelPosition=bottom;sketch=0;rotation=-180;fillColor=#e1d5e7;strokeColor=#9673a6;" vertex="1" parent="1">
          <mxGeometry x="580" y="910" width="20" height="20" as="geometry" />
        </mxCell>
        <mxCell id="Hy0fXk0MDbkFYqpimEH8-160" value="" style="shape=partialRectangle;whiteSpace=wrap;html=1;bottom=1;right=1;left=1;top=0;fillColor=#FFFFFF;routingCenterX=-0.5;rotation=90;strokeColor=#9673a6;" vertex="1" parent="1">
          <mxGeometry x="540" y="887.5" width="40" height="31.25" as="geometry" />
        </mxCell>
        <mxCell id="Hy0fXk0MDbkFYqpimEH8-162" value="Encryption" style="text;html=1;align=center;verticalAlign=middle;resizable=0;points=[];autosize=1;strokeColor=none;fillColor=none;" vertex="1" parent="1">
          <mxGeometry x="540" y="848" width="80" height="30" as="geometry" />
        </mxCell>
        <mxCell id="Hy0fXk0MDbkFYqpimEH8-163" value="Access&lt;br&gt;Control" style="text;html=1;align=center;verticalAlign=middle;resizable=0;points=[];autosize=1;strokeColor=none;fillColor=none;" vertex="1" parent="1">
          <mxGeometry x="540" y="933" width="60" height="40" as="geometry" />
        </mxCell>
        <mxCell id="Hy0fXk0MDbkFYqpimEH8-164" value="User Provider&lt;br&gt;Interface &amp;amp; Form&lt;br&gt;Login&lt;br&gt;Authenticator" style="shape=module;align=left;spacingLeft=20;align=center;verticalAlign=top;whiteSpace=wrap;html=1;sketch=1;curveFitting=1;jiggle=2;shadow=1;fillColor=#e1d5e7;strokeColor=#9673a6;" vertex="1" parent="1">
          <mxGeometry x="960" y="880" width="160" height="70" as="geometry" />
        </mxCell>
        <mxCell id="Hy0fXk0MDbkFYqpimEH8-165" value="" style="endArrow=none;html=1;rounded=0;exitX=0;exitY=0.5;exitDx=0;exitDy=0;exitPerimeter=0;fillColor=#e1d5e7;strokeColor=#9673a6;" edge="1" parent="1">
          <mxGeometry relative="1" as="geometry">
            <mxPoint x="910" y="890" as="sourcePoint" />
            <mxPoint x="960" y="890" as="targetPoint" />
            <Array as="points">
              <mxPoint x="960" y="890" />
            </Array>
          </mxGeometry>
        </mxCell>
        <mxCell id="Hy0fXk0MDbkFYqpimEH8-167" value="" style="shape=providedRequiredInterface;html=1;verticalLabelPosition=bottom;sketch=0;rotation=-180;fillColor=#e1d5e7;strokeColor=#9673a6;" vertex="1" parent="1">
          <mxGeometry x="890" y="880" width="20" height="20" as="geometry" />
        </mxCell>
        <mxCell id="Hy0fXk0MDbkFYqpimEH8-168" value="" style="shape=providedRequiredInterface;html=1;verticalLabelPosition=bottom;sketch=0;rotation=-180;fillColor=#e1d5e7;strokeColor=#9673a6;" vertex="1" parent="1">
          <mxGeometry x="890" y="910" width="20" height="20" as="geometry" />
        </mxCell>
        <mxCell id="Hy0fXk0MDbkFYqpimEH8-169" value="" style="endArrow=none;html=1;rounded=0;exitX=0;exitY=0.5;exitDx=0;exitDy=0;exitPerimeter=0;fillColor=#e1d5e7;strokeColor=#9673a6;" edge="1" parent="1">
          <mxGeometry relative="1" as="geometry">
            <mxPoint x="910" y="920" as="sourcePoint" />
            <mxPoint x="960" y="920" as="targetPoint" />
            <Array as="points">
              <mxPoint x="960" y="920" />
            </Array>
          </mxGeometry>
        </mxCell>
        <mxCell id="Hy0fXk0MDbkFYqpimEH8-170" value="" style="endArrow=none;html=1;rounded=0;fillColor=#e1d5e7;strokeColor=#9673a6;" edge="1" parent="1">
          <mxGeometry relative="1" as="geometry">
            <mxPoint x="780" y="890" as="sourcePoint" />
            <mxPoint x="890" y="890" as="targetPoint" />
            <Array as="points">
              <mxPoint x="890" y="890" />
            </Array>
          </mxGeometry>
        </mxCell>
        <mxCell id="Hy0fXk0MDbkFYqpimEH8-171" value="" style="endArrow=none;html=1;rounded=0;fillColor=#e1d5e7;strokeColor=#9673a6;" edge="1" parent="1">
          <mxGeometry relative="1" as="geometry">
            <mxPoint x="780" y="920" as="sourcePoint" />
            <mxPoint x="890" y="920" as="targetPoint" />
            <Array as="points">
              <mxPoint x="890" y="920" />
            </Array>
          </mxGeometry>
        </mxCell>
        <mxCell id="Hy0fXk0MDbkFYqpimEH8-178" value="" style="curved=1;endArrow=classic;html=1;rounded=0;entryX=0.25;entryY=1;entryDx=0;entryDy=0;fillColor=#e1d5e7;strokeColor=#9673a6;" edge="1" parent="1" target="Hy0fXk0MDbkFYqpimEH8-160">
          <mxGeometry width="50" height="50" relative="1" as="geometry">
            <mxPoint x="350" y="820" as="sourcePoint" />
            <mxPoint x="440" y="820" as="targetPoint" />
            <Array as="points">
              <mxPoint x="370" y="850" />
              <mxPoint x="440" y="870" />
              <mxPoint x="390" y="820" />
            </Array>
          </mxGeometry>
        </mxCell>
      </root>
    </mxGraphModel>
  </diagram>
</mxfile>
